<mxfile host="app.diagrams.net" agent="Mozilla/5.0 (X11; Linux x86_64; rv:109.0) Gecko/20100101 Firefox/118.0" version="24.7.6">
  <diagram name="Page-1" id="U-xwnc_2gSRWcajGcQJo">
    <mxGraphModel dx="1434" dy="797" grid="1" gridSize="10" guides="1" tooltips="1" connect="1" arrows="1" fold="1" page="1" pageScale="1" pageWidth="850" pageHeight="1100" math="0" shadow="0">
      <root>
        <mxCell id="0" />
        <mxCell id="1" parent="0" />
        <mxCell id="cqWg7ovru_6P2gWq1IT1-1" value="" style="rounded=0;whiteSpace=wrap;html=1;" vertex="1" parent="1">
          <mxGeometry x="20" y="20" width="810" height="60" as="geometry" />
        </mxCell>
        <mxCell id="cqWg7ovru_6P2gWq1IT1-2" value="IOT usecase with MODBUS and MQTT in Agriculture" style="text;html=1;align=center;verticalAlign=middle;whiteSpace=wrap;rounded=0;" vertex="1" parent="1">
          <mxGeometry x="40" y="35" width="770" height="30" as="geometry" />
        </mxCell>
        <mxCell id="cqWg7ovru_6P2gWq1IT1-3" value="&lt;div&gt;Modbus atau Moducon Bus adalah salah satu protokol untuk komunikasi data di perangkat IOT&lt;/div&gt;&lt;div&gt;MQTT atau Message Queuing Telementary Transport merupakan protokol kommunikasi data machine to machine menggunakan konsep publish/subscribe.&lt;br&gt;&lt;/div&gt;" style="text;html=1;align=center;verticalAlign=middle;whiteSpace=wrap;rounded=0;" vertex="1" parent="1">
          <mxGeometry x="20" y="90" width="480" height="100" as="geometry" />
        </mxCell>
        <mxCell id="cqWg7ovru_6P2gWq1IT1-4" value="" style="rounded=1;whiteSpace=wrap;html=1;" vertex="1" parent="1">
          <mxGeometry x="380" y="230" width="120" height="60" as="geometry" />
        </mxCell>
        <mxCell id="cqWg7ovru_6P2gWq1IT1-5" value="Temperature sensor" style="text;html=1;align=center;verticalAlign=middle;whiteSpace=wrap;rounded=0;" vertex="1" parent="1">
          <mxGeometry x="385" y="245" width="110" height="30" as="geometry" />
        </mxCell>
        <mxCell id="cqWg7ovru_6P2gWq1IT1-6" value="" style="whiteSpace=wrap;html=1;aspect=fixed;" vertex="1" parent="1">
          <mxGeometry x="150" y="910" width="180" height="180" as="geometry" />
        </mxCell>
        <mxCell id="cqWg7ovru_6P2gWq1IT1-7" value="Thingsboard" style="text;html=1;align=center;verticalAlign=middle;whiteSpace=wrap;rounded=0;strokeWidth=6;fontSize=18;" vertex="1" parent="1">
          <mxGeometry x="170" y="960" width="140" height="80" as="geometry" />
        </mxCell>
        <mxCell id="cqWg7ovru_6P2gWq1IT1-8" value="" style="rounded=0;whiteSpace=wrap;html=1;" vertex="1" parent="1">
          <mxGeometry x="440" y="810" width="120" height="60" as="geometry" />
        </mxCell>
        <mxCell id="cqWg7ovru_6P2gWq1IT1-9" value="MQTT Server" style="text;html=1;align=center;verticalAlign=middle;whiteSpace=wrap;rounded=0;" vertex="1" parent="1">
          <mxGeometry x="465" y="825" width="60" height="30" as="geometry" />
        </mxCell>
        <mxCell id="cqWg7ovru_6P2gWq1IT1-11" value="" style="endArrow=classic;html=1;rounded=0;" edge="1" parent="1">
          <mxGeometry width="50" height="50" relative="1" as="geometry">
            <mxPoint x="330" y="1010" as="sourcePoint" />
            <mxPoint x="460" y="900" as="targetPoint" />
          </mxGeometry>
        </mxCell>
        <mxCell id="cqWg7ovru_6P2gWq1IT1-13" value="" style="rounded=1;whiteSpace=wrap;html=1;" vertex="1" parent="1">
          <mxGeometry x="220" y="400" width="120" height="60" as="geometry" />
        </mxCell>
        <mxCell id="cqWg7ovru_6P2gWq1IT1-14" value="PLC" style="text;html=1;align=center;verticalAlign=middle;whiteSpace=wrap;rounded=0;fontSize=17;" vertex="1" parent="1">
          <mxGeometry x="250" y="415" width="60" height="30" as="geometry" />
        </mxCell>
        <mxCell id="cqWg7ovru_6P2gWq1IT1-15" value="" style="image;html=1;image=img/lib/clip_art/networking/Wireless_Router_128x128.png" vertex="1" parent="1">
          <mxGeometry x="250" y="600" width="80" height="80" as="geometry" />
        </mxCell>
        <mxCell id="cqWg7ovru_6P2gWq1IT1-16" value="Router LTE" style="text;html=1;align=center;verticalAlign=middle;whiteSpace=wrap;rounded=0;" vertex="1" parent="1">
          <mxGeometry x="260" y="690" width="60" height="30" as="geometry" />
        </mxCell>
        <mxCell id="cqWg7ovru_6P2gWq1IT1-17" value="" style="ellipse;shape=cloud;whiteSpace=wrap;html=1;" vertex="1" parent="1">
          <mxGeometry x="430" y="620" width="110" height="80" as="geometry" />
        </mxCell>
        <mxCell id="cqWg7ovru_6P2gWq1IT1-18" value="Internet" style="text;html=1;align=center;verticalAlign=middle;whiteSpace=wrap;rounded=0;" vertex="1" parent="1">
          <mxGeometry x="455" y="650" width="60" height="30" as="geometry" />
        </mxCell>
        <mxCell id="cqWg7ovru_6P2gWq1IT1-19" value="" style="endArrow=classic;html=1;rounded=0;" edge="1" parent="1">
          <mxGeometry width="50" height="50" relative="1" as="geometry">
            <mxPoint x="484.5" y="710" as="sourcePoint" />
            <mxPoint x="484.5" y="790" as="targetPoint" />
          </mxGeometry>
        </mxCell>
        <mxCell id="cqWg7ovru_6P2gWq1IT1-20" value="" style="endArrow=classic;html=1;rounded=0;" edge="1" parent="1">
          <mxGeometry width="50" height="50" relative="1" as="geometry">
            <mxPoint x="340" y="650" as="sourcePoint" />
            <mxPoint x="420" y="650" as="targetPoint" />
            <Array as="points">
              <mxPoint x="380" y="650" />
            </Array>
          </mxGeometry>
        </mxCell>
        <mxCell id="cqWg7ovru_6P2gWq1IT1-21" value="" style="endArrow=classic;html=1;rounded=0;" edge="1" parent="1">
          <mxGeometry width="50" height="50" relative="1" as="geometry">
            <mxPoint x="279.5" y="480" as="sourcePoint" />
            <mxPoint x="279.5" y="580" as="targetPoint" />
          </mxGeometry>
        </mxCell>
        <mxCell id="cqWg7ovru_6P2gWq1IT1-22" value="LAN" style="text;html=1;align=center;verticalAlign=middle;whiteSpace=wrap;rounded=0;" vertex="1" parent="1">
          <mxGeometry x="220" y="510" width="60" height="30" as="geometry" />
        </mxCell>
        <mxCell id="cqWg7ovru_6P2gWq1IT1-24" value="" style="endArrow=classic;html=1;rounded=0;" edge="1" parent="1">
          <mxGeometry width="50" height="50" relative="1" as="geometry">
            <mxPoint x="440" y="300" as="sourcePoint" />
            <mxPoint x="350" y="430" as="targetPoint" />
            <Array as="points">
              <mxPoint x="440" y="430" />
            </Array>
          </mxGeometry>
        </mxCell>
        <mxCell id="cqWg7ovru_6P2gWq1IT1-25" value="Modbus" style="text;html=1;align=center;verticalAlign=middle;whiteSpace=wrap;rounded=0;" vertex="1" parent="1">
          <mxGeometry x="440" y="360" width="60" height="30" as="geometry" />
        </mxCell>
        <mxCell id="cqWg7ovru_6P2gWq1IT1-26" value="Slave" style="text;html=1;align=center;verticalAlign=middle;whiteSpace=wrap;rounded=0;" vertex="1" parent="1">
          <mxGeometry x="500" y="245" width="60" height="30" as="geometry" />
        </mxCell>
        <mxCell id="cqWg7ovru_6P2gWq1IT1-27" value="Master" style="text;html=1;align=center;verticalAlign=middle;whiteSpace=wrap;rounded=0;" vertex="1" parent="1">
          <mxGeometry x="250" y="370" width="60" height="30" as="geometry" />
        </mxCell>
        <mxCell id="cqWg7ovru_6P2gWq1IT1-29" value="" style="sketch=0;outlineConnect=0;fontColor=#232F3E;gradientColor=none;fillColor=#7AA116;strokeColor=none;dashed=0;verticalLabelPosition=bottom;verticalAlign=top;align=center;html=1;fontSize=12;fontStyle=0;aspect=fixed;pointerEvents=1;shape=mxgraph.aws4.iot_thing_temperature_humidity_sensor;" vertex="1" parent="1">
          <mxGeometry x="330" y="240" width="40" height="40" as="geometry" />
        </mxCell>
        <mxCell id="cqWg7ovru_6P2gWq1IT1-30" value="" style="sketch=0;outlineConnect=0;fontColor=#232F3E;gradientColor=none;fillColor=#7AA116;strokeColor=none;dashed=0;verticalLabelPosition=bottom;verticalAlign=top;align=center;html=1;fontSize=12;fontStyle=0;aspect=fixed;pointerEvents=1;shape=mxgraph.aws4.mqtt_protocol;" vertex="1" parent="1">
          <mxGeometry x="520" y="830" width="40" height="40" as="geometry" />
        </mxCell>
      </root>
    </mxGraphModel>
  </diagram>
</mxfile>
